<?xml version="1.0" encoding="UTF-8"?>
<svg width="1024" height="1024" version="1.1" viewBox="0 0 1024 1024" xmlns="http://www.w3.org/2000/svg" xmlns:xlink="http://www.w3.org/1999/xlink">
 <defs>
  <linearGradient id="linearGradient2" x1="207.03" x2="483.68" y1="313.89" y2="881.29" gradientTransform="matrix(1.1165 0 0 1.1165 -57.165 -47.223)" gradientUnits="userSpaceOnUse">
   <stop stop-color="#b8e6fe" offset="0"/>
   <stop stop-color="#74d4ff" offset="1"/>
  </linearGradient>
 </defs>
 <rect width="1024" height="1024" fill="url(#linearGradient2)"/>
 <use transform="translate(-234.15 -317.97)" xlink:href="#use3"/>
 <use id="use3" transform="translate(-254.36 358.07)" xlink:href="#use2"/>
 <use id="use2" transform="translate(306.92 114.13)" xlink:href="#path2"/>
 <path id="path2" d="m436.83 209.33c-7.0211 1.6987-11.687 7.4537-11.703 14.434-4e-3 2.0655-0.0992 2.6726-0.43548 2.8018-0.23621 0.0906-4.8112 3.3752-10.166 7.299-10.131 7.4231-12.676 9.3102-38.865 28.824-8.7241 6.5-16.617 12.375-17.54 13.055l-1.6776 1.237-1.2064-0.48798c-1.7919-0.72477-5.4447-0.88049-7.6135-0.32417-7.2539 1.8605-11.884 7.5084-11.975 14.608-0.0539 4.1878 1.2834 7.5646 4.1984 10.6 2.0047 2.0877 5.2175 3.872 8.0099 4.449l1.7203 0.3553 2.1345 6.6459c1.1738 3.6553 5.7893 18.261 10.256 32.457 4.4671 14.197 9.0172 28.65 10.112 32.118l1.99 6.3053-1.3203 1.4686c-2.5034 2.7846-3.6825 6.0614-3.6511 10.147 0.077 10.019 8.9955 17.159 18.878 15.113 4.297-0.88944 8.6152-4.1885 10.626-8.1181l0.99587-1.9459h81.619l0.99325 1.9459c1.3039 2.5538 4.2202 5.4619 6.6807 6.6613 5.5442 2.7027 11.635 2.2643 16.469-1.185 4.1492-2.9607 6.2875-7.3191 6.2799-12.801-5e-3 -4.0468-1.1622-7.3765-3.4758-10.005l-1.1657-1.3243 6.9591-22.579c3.8274-12.418 8.7732-28.418 10.991-35.555 2.2172-7.1378 4.4747-14.411 5.0161-16.163l0.98462-3.1848 1.8112-0.36889c4.0379-0.82223 7.9106-3.4312 10.087-6.7952 1.5522-2.3996 2.251-4.8588 2.251-7.9215 0-4.5854-1.2448-7.6796-4.3309-10.766-2.1503-2.1503-4.9603-3.7058-7.7358-4.2818-2.2498-0.46693-5.9243-0.2013-7.6262 0.55172l-1.3797 0.61027-13.761-10.277c-22.013-16.439-31.772-23.712-43.544-32.448l-11.035-8.1916-0.11133-2.7264c-0.17649-4.3309-1.5375-7.4807-4.4807-10.369-3.7167-3.6477-9.1156-5.1114-14.261-3.8662m-16.228 32.785c-10.839 8.076-18.937 14.102-31.964 23.786-5.3931 4.0091-13.129 9.7613-17.19 12.783l-7.384 5.4938 0.70573 1.9291c1.87 5.1099 0.74553 10.784-2.8855 14.559-0.83031 0.86348-1.7494 1.6964-2.0422 1.851-0.49692 0.26273-0.33109 0.9105 2.5054 9.7716 1.6707 5.2197 5.1847 16.239 7.8088 24.487 2.6241 8.2483 6.5412 20.513 8.7042 27.255 2.1633 6.7415 4.1305 12.938 4.372 13.771l0.43894 1.5141h1.4853c3.7356 0 7.8101 1.8983 10.758 5.0117 1.8143 1.9164 3.5384 4.7354 3.5384 5.7853 0 0.40665 4.0097 0.45077 40.952 0.45077 37.624 0 40.952-0.038 40.952-0.46893 0-0.77263 1.7111-3.8982 2.933-5.3576 1.4077-1.6814 4.541-3.7997 6.7798-4.5842 0.92345-0.32359 2.7634-0.6766 4.089-0.78473l2.4096-0.19641 2.858-9.229c1.5721-5.076 3.5629-11.5 4.4244-14.276 0.86116-2.7759 2.6694-8.6161 4.0182-12.978 1.3488-4.3622 4.2901-13.836 6.5361-21.053 2.2458-7.2173 4.4633-14.384 4.9278-15.926l0.84444-2.804-1.8446-1.8103c-2.8583-2.8054-4.2354-6.0643-4.2292-10.01 4e-3 -2.2963 0.45222-4.449 1.2476-5.9864l0.47586-0.91971-8.0014-5.9223c-11.831-8.7572-36.357-27.005-53.137-39.535-2.1414-1.5992-4.0497-3.004-4.241-3.1219-0.2016-0.12458-0.9275 0.19785-1.7304 0.76832-0.76053 0.54047-1.8181 1.2035-2.3496 1.4735-5.0177 2.5478-12.72 1.8169-16.581-1.5726-0.54249-0.47615-1.0339-0.86232-1.0922-0.85828-0.0582 4e-3 -4.1512 3.0216-9.0953 6.7053m6.0188 19.013c-0.26447 0.26446-0.34609 7.0381-0.34609 28.73v28.384l-0.6489-0.18919c-2.8645-0.83549-4.8856-1.0801-7.7148-0.93327-10.862 0.56296-20.799 7.099-24.42 16.062-2.6782 6.6303-1.759 12.267 2.6775 16.416 3.0612 2.8636 6.6218 4.1396 11.503 4.1227 6.6086-0.0234 13.184-2.9672 18.085-8.0967 2.4944-2.6105 4.1829-5.3288 5.3355-8.5884l0.80553-2.2782 0.081-25.42 0.0811-25.418 3.1163 0.65987c3.928 0.83203 6.7743 1.63 10.988 3.0808 7.8286 2.6951 11.048 5.5206 12.292 10.786 0.53354 2.2588 0.44501 8.0277-0.19524 12.717-0.40926 2.9962-0.2238 3.5502 1.1891 3.5502 1.0734 0 1.8965-1.0221 3.52-4.37 4.2441-8.7527 4.9264-16.801 1.9435-22.922-1.2571-2.5797-3.9571-4.9811-8.3717-7.4448-11.251-6.2794-15.783-9.2926-24.833-16.512-3.3334-2.6587-4.3148-3.1089-5.0882-2.3355m65.843 46.253c-5.5518 2.302-13.403 5.5458-17.448 7.2077-4.0448 1.6624-7.549 3.1442-7.7869 3.2926-0.37578 0.23505-0.44298 2.7043-0.51077 18.847l-0.0785 18.577-1.0752-0.38386c-1.4273-0.5096-5.3072-0.50413-7.2383 0.01-3.6776 0.97883-7.5139 3.8638-9.4723 7.1234-4.2117 7.0109-0.11795 14.144 8.1367 14.178 2.8295 0.0115 5.1297-0.62065 7.6427-2.1007 2.0214-1.1905 5.0822-4.1711 5.8926-5.7384 1.5207-2.9411 1.4512-1.9603 1.6058-22.626l0.1442-19.271 2.3072-0.98345c1.269-0.54076 7.174-3.008 13.122-5.4826 5.9482-2.4746 10.978-4.5675 11.176-4.6514 0.28493-0.12027 0.3605 2.1924 0.3605 11.016v11.168l-0.6489-0.19842c-1.393-0.42656-4.8083-0.50874-6.3149-0.15199-5.3188 1.2589-9.5649 5.5625-9.9774 10.112-0.69536 7.668 8.3842 11.608 15.826 6.8678 2.0171-1.2851 4.2075-3.7732 5.2394-5.9511l0.92316-1.9493 0.0793-21.098c0.0715-19.002 0.0334-21.143-0.38096-21.558-0.25322-0.25322-0.67832-0.45597-0.94453-0.45048-0.26648 5e-3 -5.0266 1.8931-10.578 4.195" fill="#024a70" fill-opacity=".36471" fill-rule="evenodd" stroke-width=".28839"/>
 <path d="m507.52 353.72c-8.8838 2.1494-14.788 9.4312-14.808 18.264-6e-3 2.6135-0.12553 3.3816-0.55101 3.5451-0.29888 0.11459-6.0877 4.2706-12.863 9.2354-12.819 9.3925-16.039 11.78-49.176 36.471-11.039 8.2244-21.026 15.658-22.193 16.519l-2.1227 1.5651-1.5264-0.61744c-2.2672-0.91704-6.8892-1.1141-9.6334-0.41017-9.1784 2.3541-15.036 9.5003-15.152 18.484-0.0682 5.2989 1.6239 9.5715 5.3122 13.412 2.5365 2.6416 6.6017 4.8993 10.135 5.6293l2.1767 0.44957 2.7008 8.4091c1.4852 4.6251 7.3252 23.106 12.977 41.068 5.6522 17.963 11.409 36.25 12.794 40.639l2.5179 7.9781-1.6706 1.8582c-3.1675 3.5234-4.6595 7.6695-4.6197 12.838 0.0974 12.677 11.382 21.711 23.886 19.123 5.437-1.1254 10.901-5.2997 13.446-10.272l1.2601-2.4621h103.27l1.2568 2.4621c1.6498 3.2314 5.3398 6.9109 8.4532 8.4286 7.0151 3.4197 14.722 2.8651 20.838-1.4994 5.25-3.7462 7.9556-9.2609 7.9459-16.197-7e-3 -5.1204-1.4706-9.3334-4.398-12.659l-1.475-1.6757 8.8053-28.569c4.8428-15.712 11.101-35.957 13.907-44.988 2.8055-9.0315 5.6618-18.235 6.3469-20.451l1.2458-4.0297 2.2916-0.46674c5.1091-1.0404 10.009-4.3415 12.763-8.598 1.964-3.0362 2.8481-6.1478 2.8481-10.023 0-5.8019-1.575-9.717-5.4799-13.622-2.7208-2.7208-6.2763-4.6889-9.7881-5.4178-2.8467-0.59081-7.4961-0.25471-9.6495 0.69809l-1.7458 0.77218-17.412-13.004c-27.853-20.8-40.201-30.003-55.096-41.057l-13.963-10.365-0.14087-3.4497c-0.22332-5.4799-1.9454-9.4653-5.6694-13.12-4.7027-4.6154-11.534-6.4675-18.045-4.8919m-20.534 41.484c-13.714 10.219-23.961 17.844-40.444 30.097-6.8239 5.0727-16.612 12.351-21.751 16.174l-9.343 6.9513 0.89296 2.4409c2.3661 6.4656 0.94332 13.644-3.651 18.422-1.0506 1.0926-2.2136 2.1464-2.584 2.342-0.62876 0.33243-0.41893 1.152 3.1701 12.364 2.114 6.6045 6.5601 20.547 9.8805 30.983 3.3203 10.437 8.2766 25.955 11.014 34.485 2.7372 8.53 5.2263 16.371 5.5319 17.425l0.55539 1.9158h1.8793c4.7267 0 9.8822 2.4019 13.612 6.3413 2.2957 2.4249 4.4771 5.9916 4.4771 7.3201 0 0.51452 5.0735 0.57036 51.817 0.57036 47.606 0 51.817-0.0481 51.817-0.59335 0-0.9776 2.165-4.9323 3.7112-6.779 1.7812-2.1275 5.7457-4.8078 8.5786-5.8005 1.1684-0.40945 3.4965-0.85611 5.1738-0.99293l3.0489-0.24851 3.6163-11.677c1.9892-6.4226 4.5082-14.551 5.5983-18.063 1.0896-3.5124 3.3776-10.902 5.0843-16.421 1.7067-5.5195 5.4282-17.507 8.2702-26.639 2.8416-9.1321 5.6474-18.2 6.2351-20.152l1.0685-3.5479-2.334-2.2906c-3.6166-3.5496-5.359-7.6731-5.3511-12.666 4e-3 -2.9055 0.57219-5.6293 1.5786-7.5746l0.6021-1.1637-10.124-7.4935c-14.97-11.08-46.002-34.169-67.234-50.024-2.7095-2.0234-5.1241-3.801-5.3661-3.9501-0.25509-0.15764-1.1736 0.25033-2.1895 0.97215-0.9623 0.68386-2.3004 1.5228-2.973 1.8644-6.3489 3.2237-16.095 2.299-20.98-1.9899-0.6864-0.60247-1.3082-1.0911-1.3819-1.086-0.0737 6e-3 -5.2526 3.8233-11.508 8.4842m7.6155 24.057c-0.33462 0.33463-0.4379 8.9053-0.4379 36.352v35.914l-0.82106-0.23938c-3.6245-1.0572-6.1817-1.3666-9.7616-1.1809-13.744 0.71232-26.317 8.9824-30.899 20.324-3.3887 8.3893-2.2256 15.521 3.3878 20.772 3.8733 3.6234 8.3786 5.2379 14.555 5.2164 8.3619-0.0296 16.682-3.7544 22.883-10.245 3.1562-3.3031 5.2927-6.7426 6.751-10.867l1.0192-2.8826 0.10255-32.164 0.10256-32.161 3.943 0.83492c4.9702 1.0528 8.5715 2.0625 13.903 3.8981 9.9056 3.4101 13.98 6.9852 15.553 13.648 0.67508 2.858 0.56307 10.158-0.24705 16.091-0.51783 3.7911-0.28317 4.492 1.5046 4.492 1.3582 0 2.3997-1.2933 4.4539-5.5293 5.3701-11.075 6.2334-21.258 2.4592-29.004-1.5906-3.2641-5.0069-6.3026-10.593-9.4199-14.236-7.9454-19.97-11.758-31.421-20.893-4.2178-3.3641-5.4596-3.9337-6.4382-2.9552m83.312 58.524c-7.0247 2.9128-16.959 7.0171-22.078 9.1199-5.1179 2.1034-9.5518 3.9783-9.8528 4.1661-0.47547 0.29741-0.5605 3.4217-0.64627 23.847l-0.0993 23.505-1.3604-0.4857c-1.806-0.6448-6.7152-0.63788-9.1586 0.0124-4.6533 1.2385-9.5074 4.8888-11.985 9.0132-5.3291 8.8708-0.14925 17.896 10.295 17.94 3.5801 0.0146 6.4907-0.7853 9.6704-2.6581 2.5577-1.5064 6.4305-5.2777 7.456-7.2608 1.9242-3.7213 1.8362-2.4803 2.0318-28.628l0.18246-24.383 2.9193-1.2444c1.6056-0.68422 9.0773-3.8061 16.604-6.9372 7.5263-3.1311 13.89-5.7793 14.14-5.8855 0.36052-0.15217 0.45614 2.7741 0.45614 13.938v14.131l-0.82105-0.25106c-1.7625-0.53972-6.084-0.6437-7.9903-0.19231-6.7299 1.5929-12.102 7.0383-12.624 12.795-0.87984 9.7023 10.609 14.687 20.024 8.6898 2.5522-1.6261 5.3238-4.7742 6.6294-7.53l1.1681-2.4665 0.10031-26.695c0.0905-24.044 0.0423-26.753-0.48204-27.278-0.32039-0.32039-0.85828-0.57694-1.1951-0.56999-0.33718 7e-3 -6.3602 2.3953-13.385 5.3079" fill="#024a70" fill-rule="evenodd" stroke-width=".3649"/>
 <path id="path4" d="m342.13-3.8729c-5.0888 1.2312-8.4709 5.4024-8.4825 10.462-3e-3 1.4971-0.0719 1.9371-0.31564 2.0307-0.1712 0.065641-3.4872 2.4463-7.3684 5.2903-7.3428 5.3802-9.1874 6.748-28.169 20.891-6.3232 4.7111-12.044 8.9691-12.713 9.4622l-1.2159 0.89654-0.87437-0.35368c-1.2987-0.5253-3.9463-0.63817-5.5182-0.23496-5.2576 1.3485-8.6132 5.442-8.6792 10.588-0.039 3.0353 0.9302 5.4828 3.0429 7.6827 1.453 1.5132 3.7816 2.8064 5.8055 3.2246l1.2469 0.25752 1.5471 4.8169c0.85075 2.6493 4.196 13.236 7.4337 23.525 3.2377 10.29 6.5356 20.765 7.3289 23.279l1.4423 4.57-0.95694 1.0644c-1.8144 2.0183-2.6691 4.3932-2.6463 7.3541 0.0558 7.2616 6.5199 12.437 13.683 10.954 3.1144-0.64465 6.2442-3.0358 7.702-5.884l0.7218-1.4103h59.157l0.71991 1.4103c0.94503 1.851 3.0588 3.9587 4.8422 4.8281 4.0184 1.9589 8.433 1.6412 11.936-0.85891 3.0073-2.1459 4.5571-5.3048 4.5516-9.2781-4e-3 -2.9331-0.84239-5.3464-2.5193-7.2516l-0.8449-0.95988 5.0439-16.365c2.7741-9.0003 6.3588-20.597 7.966-25.77 1.607-5.1735 3.2432-10.445 3.6356-11.715l0.71364-2.3083 1.3127-0.26736c2.9266-0.59595 5.7335-2.4869 7.311-4.9251 1.125-1.7392 1.6315-3.5216 1.6315-5.7414 0-3.3234-0.90218-5.5661-3.139-7.8029-1.5585-1.5585-3.5952-2.6859-5.6068-3.1034-1.6307-0.33843-4.2939-0.1459-5.5274 0.39988l-1 0.44232-9.9742-7.4488c-15.955-11.915-23.028-17.187-31.56-23.518l-7.9983-5.9372-0.0807-1.976c-0.12792-3.139-1.1143-5.4219-3.2476-7.5153-2.6938-2.6438-6.6069-3.7047-10.336-2.8022m-11.762 23.763c-7.8558 5.8534-13.726 10.221-23.167 17.24-3.9089 2.9057-9.5156 7.0749-12.459 9.265l-5.3519 3.9818 0.51151 1.3982c1.3554 3.7036 0.54035 7.8158-2.0914 10.552-0.60181 0.62585-1.268 1.2295-1.4802 1.3416-0.36017 0.19042-0.23998 0.65992 1.8159 7.0824 1.2109 3.7832 3.7578 11.77 5.6598 17.748 1.902 5.9783 4.741 14.867 6.3088 19.754 1.568 4.8862 2.9938 9.3776 3.1688 9.9813l0.31815 1.0974h1.0765c2.7076 0 5.6607 1.3758 7.7972 3.6324 1.315 1.389 2.5646 3.4322 2.5646 4.1931 0 0.29474 2.9062 0.32672 29.682 0.32672 27.27 0 29.682-0.0275 29.682-0.33989 0-0.55999 1.2402-2.8253 2.1258-3.8832 1.0203-1.2187 3.2912-2.754 4.914-3.3226 0.66931-0.23454 2.0029-0.4904 2.9637-0.56877l1.7465-0.14235 2.0715-6.6891c1.1394-3.679 2.5824-8.3351 3.2068-10.347 0.62416-2.012 1.9348-6.2449 2.9124-9.4064 0.97763-3.1617 3.1094-10.028 4.7373-15.259 1.6278-5.2311 3.235-10.426 3.5716-11.543l0.61205-2.0323-1.337-1.3121c-2.0716-2.0333-3.0698-4.3953-3.0652-7.2553 2e-3 -1.6643 0.32777-3.2246 0.90427-4.3389l0.3449-0.6666-5.7994-4.2925c-8.5749-6.3471-26.351-19.573-38.513-28.655-1.552-1.1591-2.9352-2.1773-3.0738-2.2627-0.14612-0.0903-0.67225 0.1434-1.2542 0.55687-0.55123 0.39173-1.3178 0.87229-1.703 1.068-3.6368 1.8466-9.2197 1.3169-12.018-1.1398-0.39319-0.34511-0.74938-0.625-0.7916-0.62208-0.0422 0.0032-3.0088 2.1901-6.5922 4.86m4.3623 13.78c-0.19168 0.19168-0.25084 5.1011-0.25084 20.823v20.573l-0.47032-0.13712c-2.0762-0.60556-3.541-0.78283-5.5916-0.67643-7.8726 0.40803-15.075 5.1453-17.699 11.642-1.9411 4.8056-1.2749 8.8908 1.9406 11.898 2.2187 2.0755 4.7994 3.0004 8.3374 2.9881 4.7899-0.0169 9.5559-2.1506 13.108-5.8684 1.808-1.8921 3.0318-3.8623 3.8672-6.2248l0.58383-1.6512 0.0587-18.424 0.0587-18.423 2.2586 0.47826c2.847 0.60305 4.9099 1.1814 7.9642 2.2329 5.6742 1.9534 8.0079 4.0013 8.9091 7.8176 0.38671 1.6371 0.32254 5.8184-0.14151 9.2171-0.29662 2.1716-0.1622 2.5731 0.86183 2.5731 0.77804 0 1.3746-0.74082 2.5513-3.1673 3.0761-6.3439 3.5706-12.177 1.4087-16.614-0.91116-1.8698-2.868-3.6103-6.0677-5.3959-8.1546-4.5513-11.439-6.7352-17.999-11.968-2.4161-1.927-3.1274-2.2533-3.6879-1.6928m47.723 33.524c-4.0239 1.6685-9.7147 4.0195-12.647 5.2241-2.9316 1.2049-5.4714 2.2789-5.6439 2.3865-0.27236 0.17036-0.32106 1.96-0.3702 13.66l-0.0569 13.464-0.77927-0.27822c-1.0345-0.36936-3.8466-0.3654-5.2463 7e-3 -2.6655 0.70945-5.446 2.8004-6.8654 5.1629-3.0526 5.0814-0.0855 10.251 5.8974 10.276 2.0508 8e-3 3.718-0.44984 5.5394-1.5226 1.4651-0.86289 3.6835-3.0232 4.2709-4.1592 1.1022-2.1317 1.0518-1.4208 1.1639-16.399l0.10451-13.967 1.6722-0.71279c0.91974-0.39194 5.1997-2.1802 9.5109-3.9738 4.3112-1.7936 7.9564-3.3105 8.0999-3.3713 0.20652-0.08717 0.26129 1.5891 0.26129 7.9842v8.0944l-0.47032-0.14381c-1.0096-0.30916-3.485-0.36873-4.577-0.11016-3.855 0.91242-6.9326 4.0317-7.2315 7.3292-0.50399 5.5577 6.0768 8.4133 11.47 4.9777 1.462-0.93144 3.0496-2.7348 3.7974-4.3133l0.6691-1.4128 0.0575-15.291c0.0518-13.773 0.0243-15.324-0.27612-15.625-0.18353-0.18353-0.49164-0.33049-0.68458-0.3265-0.19315 0.0038-3.6433 1.3721-7.667 3.0405" fill="#024a70" fill-opacity=".13333" fill-rule="evenodd" stroke-width=".20902"/>
 <use id="use5" transform="translate(407.64 606.12)" xlink:href="#path4"/>
 <use id="use6" transform="translate(-577.1 131.84)" xlink:href="#use5"/>
 <use transform="translate(-10.521 -561.13)" xlink:href="#use6"/>
 <use id="use8" transform="translate(347.72 125.34)" xlink:href="#path4"/>
 <use id="use9" transform="translate(113.21 321.44)" xlink:href="#use8"/>
 <use id="use10" transform="translate(-417.21 76.1)" xlink:href="#use9"/>
 <use id="use11" transform="translate(-9.3531 249.38)" xlink:href="#use10"/>
 <use transform="translate(238.55 -177.9)" xlink:href="#use11"/>
 <use transform="translate(40.432 382.09)" xlink:href="#use9"/>
 <use transform="translate(-22.238 244.62)" xlink:href="#use2"/>
 <use id="use15" transform="translate(173.86 -481.14)" xlink:href="#use9"/>
 <use id="use16" transform="translate(-948.14 515.51)" xlink:href="#use15"/>
 <use transform="translate(857.16 -281)" xlink:href="#use16"/>
 <path d="m374.08 684.52q-4.608 0-8.64-1.728-3.968-1.792-7.04-4.864-3.072-3.136-4.8-7.168-1.728-4.096-1.728-8.768 0-4.8 1.664-8.96 1.728-4.224 4.672-7.36 3.008-3.2 6.912-4.992t8.384-1.792q4.672 0 8.64 1.792 4.032 1.728 7.04 4.864t4.736 7.296q1.728 4.096 1.728 8.896 0 4.672-1.664 8.832-1.664 4.096-4.672 7.296-3.008 3.136-6.912 4.928-3.84 1.728-8.32 1.728zm-0.32-7.808q2.944 0 5.504-1.152t4.48-3.2q1.984-2.048 3.072-4.736 1.088-2.752 1.088-5.888t-1.152-5.824q-1.088-2.752-3.072-4.8-1.92-2.112-4.48-3.264-2.496-1.152-5.44-1.152-2.88 0-5.44 1.152t-4.544 3.264q-1.92 2.048-3.008 4.8t-1.088 5.824 1.088 5.824q1.152 2.752 3.072 4.8t4.416 3.2q2.56 1.152 5.504 1.152zm31.104 7.232q-1.792 0-2.624-0.512-0.768-0.512-1.024-1.408-0.192-0.96-0.192-1.984v-36.928q0-1.024 0.256-1.856 0.256-0.896 1.024-1.408 0.832-0.576 2.624-0.576h13.696q2.944 0 5.568 0.96 2.688 0.896 4.8 2.816 2.112 1.856 3.328 4.736 1.28 2.816 1.28 6.592 0 2.496-0.768 4.992-0.768 2.432-2.304 4.544-1.472 2.048-3.776 3.52t-5.44 1.92h-12.544v10.752q0 1.024-0.256 1.92-0.192 0.896-1.024 1.408-0.768 0.512-2.624 0.512zm27.264-0.96q-1.856 1.28-3.072 0.96-1.152-0.32-2.304-2.048l-10.752-16.256 8.64-1.152 8.512 12.928q0.896 1.28 1.088 2.176t-0.32 1.664-1.792 1.728zm-23.36-21.312h10.816q1.152 0 2.24-0.384 1.152-0.448 2.048-1.344 0.896-0.96 1.408-2.304 0.576-1.408 0.576-3.328 0-2.304-0.896-3.904-0.896-1.664-2.56-2.496-1.6-0.896-3.904-0.896h-9.728zm35.52 22.336q-1.792 0-2.624-0.576-0.832-0.512-1.024-1.408t-0.192-1.92v-36.992q0-1.088 0.192-1.92 0.256-0.896 1.024-1.408 0.832-0.512 2.688-0.512 1.792 0 2.56 0.512 0.832 0.512 1.024 1.408 0.256 0.896 0.256 1.984v13.248l16.32-15.872q1.024-1.088 1.856-1.472t1.728-0.064q0.896 0.256 1.92 1.28 1.664 1.6 1.664 2.816 0 1.152-1.472 2.688l-16.896 15.808 17.088 15.872q1.6 1.536 1.536 2.752t-1.728 2.752q-1.216 1.024-2.112 1.28-0.832 0.32-1.664-0.128-0.768-0.384-1.728-1.472l-16.512-16v13.504q0 1.024-0.256 1.92-0.192 0.896-1.024 1.408-0.768 0.512-2.624 0.512zm38.208 0q-1.792 0-2.624-0.576-0.832-0.512-1.024-1.408t-0.192-1.984v-36.928q0-2.176 0.832-3.008 0.896-0.832 3.2-0.832h24.96q1.088 0 1.92 0.256 0.896 0.192 1.408 1.024 0.512 0.768 0.512 2.624 0 1.792-0.576 2.624-0.512 0.832-1.408 1.024-0.832 0.192-1.92 0.192h-21.184v10.752h14.592q1.088 0 1.856 0.256 0.768 0.192 1.216 0.896t0.448 2.368q0 1.6-0.448 2.368-0.448 0.704-1.28 0.896-0.832 0.128-1.92 0.128h-14.464v11.52h21.248q1.088 0 1.92 0.256 0.896 0.192 1.408 1.024t0.512 2.624-0.576 2.624q-0.512 0.832-1.408 1.024-0.832 0.256-1.92 0.256zm48.896 0.576q-2.88 0-5.248-0.704-2.304-0.704-4.096-1.792-1.728-1.088-2.944-2.24t-1.792-2.112q-0.832-1.152-1.088-2.048t0.128-1.728q0.448-0.896 1.6-1.856 1.152-1.024 2.112-1.024 1.024-0.064 1.92 0.576 0.96 0.64 1.856 1.792 1.536 2.048 3.456 2.944 1.92 0.832 3.84 0.832 2.496 0 4.352-0.64 1.856-0.704 2.88-2.048 1.088-1.344 1.088-3.456 0-1.728-1.088-2.816-1.024-1.152-2.752-1.92-1.728-0.832-3.904-1.472-2.112-0.704-4.288-1.536-1.536-0.512-3.072-1.216-1.536-0.768-2.88-1.728-1.28-0.96-2.304-2.24-0.96-1.344-1.536-3.072t-0.576-4.032q0-3.648 1.792-6.4 1.792-2.816 4.992-4.416 3.2-1.664 7.296-1.664 2.624 0 4.672 0.512 2.112 0.448 3.584 1.216 1.536 0.704 2.496 1.472 1.024 0.704 1.472 1.216 1.472 1.472 1.6 2.496 0.192 0.96-1.152 2.624-1.344 1.728-2.624 1.92-1.216 0.128-2.752-1.024-1.024-1.088-2.048-1.728-1.024-0.704-2.304-1.024-1.216-0.32-3.008-0.32-1.28 0-2.496 0.384-1.152 0.32-1.984 1.024-0.832 0.64-1.344 1.6-0.448 0.96-0.448 2.176 0 1.664 0.896 2.752 0.96 1.024 2.56 1.728 1.6 0.64 3.584 1.216t4.032 1.216q2.112 0.704 4.16 1.664t3.648 2.432q1.6 1.408 2.56 3.584 0.96 2.112 0.96 5.184 0 3.52-1.344 6.144t-3.648 4.288-5.12 2.432q-2.816 0.832-5.696 0.832zm51.392-45.376q0.96 0 1.664 0.192 0.768 0.192 1.216 0.96 0.448 0.704 0.448 2.304t-0.448 2.368q-0.448 0.704-1.216 0.896-0.768 0.128-1.728 0.128h-11.776v34.112q0 1.088-0.256 1.984-0.192 0.832-1.024 1.344-0.768 0.512-2.624 0.512-1.728 0-2.56-0.576-0.832-0.512-1.024-1.344-0.192-0.896-0.192-1.984v-34.048h-11.904q-0.896 0-1.664-0.192t-1.28-0.896q-0.448-0.704-0.448-2.304t0.448-2.304q0.448-0.768 1.216-0.96 0.832-0.192 1.728-0.192zm13.056 44.736q-1.792 0-2.624-0.512-0.768-0.512-1.024-1.408-0.192-0.96-0.192-1.984v-36.928q0-1.024 0.256-1.856 0.256-0.896 1.024-1.408 0.832-0.576 2.624-0.576h13.696q2.944 0 5.568 0.96 2.688 0.896 4.8 2.816 2.112 1.856 3.328 4.736 1.28 2.816 1.28 6.592 0 2.496-0.768 4.992-0.768 2.432-2.304 4.544-1.472 2.048-3.776 3.52t-5.44 1.92h-12.544v10.752q0 1.024-0.256 1.92-0.192 0.896-1.024 1.408-0.768 0.512-2.624 0.512zm27.264-0.96q-1.856 1.28-3.072 0.96-1.152-0.32-2.304-2.048l-10.752-16.256 8.64-1.152 8.512 12.928q0.896 1.28 1.088 2.176t-0.32 1.664-1.792 1.728zm-23.36-21.312h10.816q1.152 0 2.24-0.384 1.152-0.448 2.048-1.344 0.896-0.96 1.408-2.304 0.576-1.408 0.576-3.328 0-2.304-0.896-3.904-0.896-1.664-2.56-2.496-1.6-0.896-3.904-0.896h-9.728zm50.816 22.848q-4.608 0-8.64-1.728-3.968-1.792-7.04-4.864-3.072-3.136-4.8-7.168-1.728-4.096-1.728-8.768 0-4.8 1.664-8.96 1.728-4.224 4.672-7.36 3.008-3.2 6.912-4.992t8.384-1.792q4.672 0 8.64 1.792 4.032 1.728 7.04 4.864t4.736 7.296q1.728 4.096 1.728 8.896 0 4.672-1.664 8.832-1.664 4.096-4.672 7.296-3.008 3.136-6.912 4.928-3.84 1.728-8.32 1.728zm-0.32-7.808q2.944 0 5.504-1.152t4.48-3.2q1.984-2.048 3.072-4.736 1.088-2.752 1.088-5.888t-1.152-5.824q-1.088-2.752-3.072-4.8-1.92-2.112-4.48-3.264-2.496-1.152-5.44-1.152-2.88 0-5.44 1.152t-4.544 3.264q-1.92 2.048-3.008 4.8t-1.088 5.824 1.088 5.824q1.152 2.752 3.072 4.8t4.416 3.2q2.56 1.152 5.504 1.152z" fill="#024a70" stroke-width="18" aria-label="ORKESTRO"/>
</svg>
