<?xml version="1.0" encoding="UTF-8"?>
<!-- Font type to use when adding 'ORKESTRO' text: https://fonts.google.com/specimen/Fredoka (weight: medium) -->
<svg height="1024" width="1024" version="1.1" viewBox="0 0 1024 1024" xmlns="http://www.w3.org/2000/svg">
 <path d="m496.14 61.679c-31.457 7.6107-52.363 33.395-52.435 64.67-0.0207 9.2543-0.4445 11.974-1.9511 12.553-1.0583 0.40573-21.556 15.122-45.548 32.702-45.39 33.258-56.792 41.713-174.13 129.14-39.087 29.122-74.451 55.443-78.585 58.491l-7.5164 5.542-5.405-2.1863c-8.0281-3.2472-24.394-3.9449-34.111-1.4524-32.5 8.3356-53.243 33.64-53.651 65.451-0.24164 18.763 5.75 33.892 18.81 47.491 8.9817 9.3538 23.376 17.348 35.887 19.933l7.7076 1.5919 9.5632 29.776c5.259 16.377 25.938 81.817 45.952 145.42 20.014 63.606 40.4 128.36 45.304 143.9l8.9158 28.25-5.9154 6.5796c-11.216 12.476-16.499 27.157-16.358 45.46 0.345 44.888 40.303 76.877 84.58 67.712 19.252-3.985 38.599-18.766 47.61-36.372l4.4618-8.7181h365.68l4.4501 8.7181c5.8418 11.442 18.908 24.471 29.932 29.845 24.84 12.109 52.129 10.145 73.786-5.3094 18.59-13.265 28.17-32.792 28.136-57.353-0.0245-18.131-5.2073-33.049-15.573-44.826l-5.2228-5.9335 31.179-101.16c17.148-55.636 39.307-127.32 49.242-159.3 9.934-31.98 20.048-64.568 22.474-72.417l4.4114-14.269 8.1146-1.6527c18.091-3.6839 35.442-15.373 45.193-30.445 6.9543-10.751 10.085-21.769 10.085-35.491 0-20.544-5.5769-34.407-19.404-48.234-9.6341-9.6342-22.224-16.603-34.659-19.184-10.08-2.092-26.543-0.90191-34.168 2.4719l-6.1816 2.7342-61.656-46.045c-98.625-73.652-142.35-106.24-195.09-145.38l-49.442-36.701-0.49876-12.215c-0.79079-19.404-6.8884-33.516-20.075-46.456-16.652-16.343-40.841-22.901-63.895-17.322m-72.709 146.89c-48.561 36.183-84.845 63.183-143.21 106.57-24.163 17.962-58.821 43.734-77.017 57.272l-33.083 24.614 3.1619 8.6431c8.3782 22.894 3.3402 48.314-12.928 65.23-3.7201 3.8687-7.8381 7.6004-9.1497 8.293-2.2264 1.1771-1.4834 4.0793 11.225 43.78 7.4854 23.386 23.229 72.757 34.986 109.71 11.757 36.955 29.307 91.904 38.998 122.11 9.6924 30.204 18.506 57.968 19.588 61.7l1.9666 6.7837h6.6545c16.737 0 34.992 8.5049 48.199 22.454 8.1288 8.5863 15.853 21.216 15.853 25.92 0 1.8219 17.965 2.0196 183.48 2.0196 168.57 0 183.48-0.17055 183.48-2.101 0-3.4616 7.6663-17.465 13.141-24.004 6.3069-7.5332 20.345-17.024 30.376-20.539 4.1374-1.4498 12.381-3.0314 18.32-3.5159l10.796-0.87995 12.805-41.349c7.0435-22.742 15.963-51.524 19.823-63.961 3.8583-12.437 11.96-38.603 18.003-58.146 6.0433-19.544 19.221-61.99 29.284-94.326 10.062-32.336 19.997-64.446 22.078-71.356l3.7834-12.563-8.2645-8.1108c-12.806-12.569-18.976-27.17-18.948-44.849 0.0156-10.288 2.0261-19.933 5.5898-26.821l2.132-4.1206-35.849-26.534c-53.006-39.235-162.89-120.99-238.07-177.13-9.5941-7.1649-18.144-13.459-19.001-13.987-0.90322-0.5582-4.1555 0.88641-7.7528 3.4423-3.4074 2.4215-8.1457 5.3921-10.527 6.6016-22.481 11.415-56.992 8.1405-74.289-7.046-2.4305-2.1333-4.6323-3.8635-4.8933-3.8454-0.26103 0.0193-18.599 13.538-40.75 30.042m26.966 85.183c-1.1849 1.1849-1.5506 31.533-1.5506 128.72v127.17l-2.9073-0.84764c-12.834-3.7433-21.889-4.8391-34.565-4.1814-48.665 2.5223-93.185 31.806-109.41 71.965-11.999 29.706-7.8808 54.959 11.996 73.551 13.715 12.83 29.668 18.547 51.538 18.471 29.609-0.1047 59.07-13.294 81.026-36.276 11.176-11.696 18.741-23.875 23.905-38.479l3.609-10.207 0.36309-113.89 0.36309-113.88 13.962 2.9564c17.599 3.7278 30.351 7.3032 49.231 13.803 35.075 12.075 49.501 24.734 55.072 48.325 2.3904 10.12 1.9938 35.967-0.87478 56.976-1.8336 13.424-1.0027 15.906 5.3275 15.906 4.8094 0 8.4971-4.5794 15.771-19.579 19.015-39.215 22.072-75.272 8.7077-102.7-5.6324-11.558-17.729-22.317-37.508-33.355-50.408-28.134-70.711-41.634-111.26-73.98-14.935-11.912-19.332-13.929-22.797-10.464m295 207.23c-24.874 10.314-60.052 24.847-78.175 32.293-18.122 7.4479-33.822 14.087-34.888 14.752-1.6836 1.0531-1.9847 12.116-2.2884 84.44l-0.35147 83.229-4.8171-1.7198c-6.3948-2.2832-23.778-2.2587-32.43 0.0439-16.477 4.3855-33.665 17.311-42.439 31.915-18.87 31.411-0.52849 63.37 36.455 63.523 12.677 0.0517 22.983-2.7807 34.242-9.412 9.0566-5.334 22.77-18.688 26.401-25.71 6.8135-13.177 6.502-8.7827 7.1946-101.37l0.64606-86.34 10.337-4.4062c5.6854-2.4228 32.142-13.477 58.792-24.564 26.65-11.087 49.183-20.464 50.07-20.84 1.2766-0.53881 1.6152 9.8229 1.6152 49.355v50.036l-2.9073-0.889c-6.241-1.9111-21.543-2.2793-28.293-0.68095-23.83 5.6402-42.854 24.922-44.702 45.306-3.1154 34.355 37.564 52.007 70.904 30.77 9.0372-5.7578 18.851-16.905 23.474-26.663l4.1361-8.7336 0.35535-94.525c0.32044-85.137 0.14988-94.729-1.7069-96.588-1.1345-1.1345-3.0391-2.0429-4.2318-2.0183-1.1939 0.0232-22.521 8.4816-47.394 18.795" fill="#00a4f2" fill-rule="evenodd" stroke-width="1.2921"/>
</svg>
