<?xml version="1.0" encoding="UTF-8" standalone="no"?>
<svg
   height="1024"
   width="1024"
   version="1.1"
   viewBox="0 0 1024 1024"
   id="svg1"
   sodipodi:docname="login-background.svg"
   inkscape:version="1.4.2 (ebf0e940d0, 2025-05-08)"
   xmlns:inkscape="http://www.inkscape.org/namespaces/inkscape"
   xmlns:sodipodi="http://sodipodi.sourceforge.net/DTD/sodipodi-0.dtd"
   xmlns:xlink="http://www.w3.org/1999/xlink"
   xmlns="http://www.w3.org/2000/svg"
   xmlns:svg="http://www.w3.org/2000/svg">
  <defs
     id="defs1">
    <linearGradient
       id="linearGradient1"
       inkscape:collect="always">
      <stop
         style="stop-color:#b8e6fe;stop-opacity:1;"
         offset="0"
         id="stop2" />
      <stop
         style="stop-color:#74d4ff;stop-opacity:1;"
         offset="1"
         id="stop1" />
    </linearGradient>
    <linearGradient
       inkscape:collect="always"
       xlink:href="#linearGradient1"
       id="linearGradient2"
       x1="207.03128"
       y1="313.88614"
       x2="483.67725"
       y2="881.28607"
       gradientUnits="userSpaceOnUse"
       gradientTransform="matrix(1.1164768,0,0,1.1164768,-57.165045,-47.223297)" />
  </defs>
  <sodipodi:namedview
     id="namedview1"
     pagecolor="#ffffff"
     bordercolor="#000000"
     borderopacity="0.25"
     inkscape:showpageshadow="2"
     inkscape:pageopacity="0.0"
     inkscape:pagecheckerboard="0"
     inkscape:deskcolor="#d1d1d1"
     inkscape:zoom="0.4602773"
     inkscape:cx="419.31244"
     inkscape:cy="430.17546"
     inkscape:window-width="1536"
     inkscape:window-height="795"
     inkscape:window-x="0"
     inkscape:window-y="0"
     inkscape:window-maximized="1"
     inkscape:current-layer="svg1" />
  <rect
     style="fill:url(#linearGradient2);fill-opacity:1;stroke:none;stroke-width:20.0966"
     id="rect1"
     width="1024"
     height="1024"
     x="0"
     y="0" />
  <use
     x="0"
     y="0"
     xlink:href="#use3"
     id="use4"
     transform="translate(-234.15098,-317.96895)" />
  <use
     x="0"
     y="0"
     xlink:href="#use2"
     id="use3"
     transform="translate(-254.35907,358.06917)" />
  <use
     x="0"
     y="0"
     xlink:href="#path2"
     id="use2"
     transform="translate(306.92102,114.12609)" />
  <path
     d="m 436.82892,209.33365 c -7.02112,1.69868 -11.68729,7.45367 -11.70336,14.43418 -0.004,2.06553 -0.0992,2.67256 -0.43548,2.80179 -0.23621,0.0906 -4.81124,3.3752 -10.16619,7.29901 -10.13094,7.4231 -12.67584,9.31024 -38.86538,28.82373 -8.72412,6.49995 -16.61728,12.37474 -17.53997,13.05504 l -1.67765,1.23696 -1.20638,-0.48798 c -1.79186,-0.72477 -5.44468,-0.88049 -7.61349,-0.32417 -7.25392,1.86048 -11.88371,7.50836 -11.97477,14.6085 -0.0539,4.18785 1.28338,7.5646 4.19835,10.59987 2.00469,2.08774 5.21746,3.87203 8.00988,4.449 l 1.72032,0.3553 2.13448,6.64593 c 1.1738,3.65531 5.7893,18.26135 10.25637,32.45738 4.46707,14.1967 9.01718,28.64963 10.11174,32.11812 l 1.98999,6.30533 -1.3203,1.46855 c -2.50339,2.78461 -3.68254,6.06138 -3.65107,10.14655 0.077,10.01889 8.99553,17.15876 18.87804,15.11315 4.297,-0.88944 8.6152,-4.18852 10.62643,-8.11814 l 0.99587,-1.94586 h 81.61886 l 0.99325,1.94586 c 1.30387,2.55383 4.22022,5.46187 6.68074,6.66133 5.54423,2.7027 11.63507,2.26434 16.46885,-1.18504 4.14925,-2.96072 6.28748,-7.31909 6.27988,-12.80104 -0.005,-4.0468 -1.16225,-7.37646 -3.47585,-10.00506 l -1.16571,-1.32434 6.95907,-22.57865 c 3.8274,-12.41782 8.77323,-28.41751 10.99069,-35.55537 2.21724,-7.13785 4.47467,-14.41141 5.01614,-16.16329 l 0.98462,-3.1848 1.81115,-0.36889 c 4.03787,-0.82223 7.91057,-3.43121 10.08697,-6.79524 1.55218,-2.3996 2.25095,-4.85878 2.25095,-7.92151 0,-4.58536 -1.24475,-7.67955 -4.33093,-10.7657 -2.15031,-2.15033 -4.96034,-3.70575 -7.7358,-4.28182 -2.24983,-0.46693 -5.92433,-0.2013 -7.62621,0.55172 l -1.37972,0.61027 -13.76146,-10.27713 c -22.01286,-16.43894 -31.77217,-23.7125 -43.5436,-32.44845 l -11.03533,-8.19157 -0.11133,-2.72636 c -0.17649,-4.33093 -1.53747,-7.48069 -4.48068,-10.36886 -3.71669,-3.64772 -9.11561,-5.11145 -14.26121,-3.86623 m -16.22846,32.78548 c -10.8387,8.07596 -18.93719,14.10229 -31.96411,23.78616 -5.39313,4.00907 -13.12871,9.76131 -17.19001,12.78296 l -7.38404,5.49379 0.70573,1.92911 c 1.86999,5.10989 0.74553,10.78356 -2.8855,14.55918 -0.83031,0.86348 -1.74944,1.69638 -2.04219,1.85097 -0.49692,0.26273 -0.33109,0.9105 2.50539,9.77159 1.67073,5.21969 5.18466,16.23918 7.80879,24.487 2.62414,8.24826 6.54125,20.51274 8.70425,27.25464 2.16333,6.74146 4.1305,12.93831 4.372,13.77128 l 0.43894,1.51411 h 1.48527 c 3.73565,0 7.81012,1.89827 10.75789,5.01168 1.81433,1.91643 3.53835,4.73535 3.53835,5.78527 0,0.40665 4.00974,0.45077 40.95227,0.45077 37.62441,0 40.95229,-0.038 40.95229,-0.46893 0,-0.77263 1.7111,-3.89815 2.93303,-5.35764 1.40769,-1.68138 4.54096,-3.79971 6.77985,-4.58425 0.92345,-0.32359 2.76341,-0.6766 4.08897,-0.78473 l 2.40965,-0.19641 2.85804,-9.22899 c 1.57209,-5.07596 3.5629,-11.50004 4.42445,-14.27593 0.86116,-2.77591 2.66944,-8.6161 4.01822,-12.97805 1.34884,-4.36217 4.29008,-13.83601 6.53612,-21.05332 2.24581,-7.21732 4.46327,-14.38419 4.92775,-15.92649 l 0.84444,-2.80402 -1.84461,-1.81032 c -2.85827,-2.80536 -4.2354,-6.06428 -4.22915,-10.01018 0.004,-2.29626 0.45222,-4.449 1.24763,-5.98638 l 0.47586,-0.91971 -8.00141,-5.92232 c -11.8308,-8.75715 -36.35664,-27.00467 -53.13662,-39.53497 -2.14138,-1.59919 -4.0497,-3.00402 -4.24098,-3.12187 -0.2016,-0.12458 -0.9275,0.19785 -1.7304,0.76832 -0.76053,0.54047 -1.8181,1.2035 -2.34961,1.47346 -5.0177,2.5478 -12.72047,1.81694 -16.58111,-1.57265 -0.54249,-0.47615 -1.03392,-0.86232 -1.09218,-0.85828 -0.0582,0.004 -4.15125,3.02164 -9.0953,6.7053 m 6.01875,19.01263 c -0.26447,0.26446 -0.34609,7.03808 -0.34609,28.72998 v 28.38402 l -0.6489,-0.18919 c -2.86452,-0.83549 -4.88558,-1.08007 -7.71482,-0.93327 -10.86191,0.56296 -20.79866,7.09901 -24.42004,16.0624 -2.67815,6.6303 -1.75897,12.26671 2.67748,16.4164 3.06115,2.86362 6.62182,4.13964 11.50315,4.12268 6.60865,-0.0234 13.18427,-2.96719 18.0848,-8.09672 2.49445,-2.61051 4.18294,-5.32883 5.33553,-8.58841 l 0.80553,-2.27818 0.081,-25.41996 0.0811,-25.41773 3.11628,0.65987 c 3.92805,0.83203 6.77427,1.63005 10.98824,3.08079 7.82865,2.6951 11.0485,5.52056 12.29193,10.78602 0.53354,2.25876 0.44501,8.02774 -0.19524,12.7169 -0.40926,2.9962 -0.2238,3.55017 1.18908,3.55017 1.07344,0 1.89653,-1.0221 3.52005,-4.36998 4.2441,-8.75268 4.92641,-16.80052 1.94353,-22.92238 -1.25713,-2.57971 -3.95706,-4.9811 -8.37169,-7.44475 -11.25094,-6.27944 -15.78252,-9.29261 -24.83295,-16.51215 -3.33345,-2.65873 -4.31485,-3.10892 -5.08824,-2.33554 m 65.84326,46.25322 c -5.55181,2.30205 -13.40345,5.54578 -17.44846,7.20771 -4.04478,1.66235 -7.54899,3.14419 -7.78691,3.29261 -0.37578,0.23505 -0.44298,2.70426 -0.51077,18.84679 l -0.0785,18.57651 -1.07516,-0.38386 c -1.42731,-0.5096 -5.30719,-0.50413 -7.2383,0.01 -3.67762,0.97883 -7.51394,3.86377 -9.47228,7.12335 -4.21174,7.01086 -0.11795,14.14402 8.13667,14.17818 2.82948,0.0115 5.12974,-0.62065 7.64273,-2.10074 2.02141,-1.19054 5.0822,-4.17111 5.89264,-5.73841 1.52074,-2.94107 1.45122,-1.96027 1.60581,-22.62553 l 0.1442,-19.27087 2.30719,-0.98345 c 1.26897,-0.54076 7.17401,-3.00804 13.12223,-5.48263 5.94821,-2.47459 10.97752,-4.56751 11.1755,-4.65143 0.28493,-0.12027 0.3605,2.19245 0.3605,11.01591 v 11.16791 l -0.6489,-0.19842 c -1.39297,-0.42656 -4.80834,-0.50874 -6.31492,-0.15199 -5.3188,1.25888 -9.56491,5.56253 -9.97737,10.11219 -0.69536,7.66795 8.38418,11.60783 15.82558,6.86778 2.01709,-1.28512 4.20751,-3.77315 5.23935,-5.95111 l 0.92316,-1.94932 0.0793,-21.09774 c 0.0715,-19.00236 0.0334,-21.14327 -0.38096,-21.5582 -0.25322,-0.25322 -0.67832,-0.45597 -0.94453,-0.45048 -0.26648,0.005 -5.02663,1.89307 -10.57823,4.195"
     fill="#00a4f2"
     fill-rule="evenodd"
     stroke-width="0.288394"
     id="path2"
     style="fill:#024a70;fill-opacity:0.36470589" />
  <path
     d="m 507.51907,353.72495 c -8.88384,2.14935 -14.78795,9.43115 -14.80828,18.26359 -0.006,2.61352 -0.12553,3.3816 -0.55101,3.54511 -0.29888,0.11459 -6.08767,4.27064 -12.8633,9.23545 -12.81869,9.39246 -16.03875,11.78025 -49.17643,36.4707 -11.03864,8.2244 -21.02586,15.65778 -22.19335,16.51856 l -2.12272,1.56513 -1.52644,-0.61744 c -2.26724,-0.91704 -6.88916,-1.11409 -9.63336,-0.41017 -9.17839,2.35407 -15.03647,9.50034 -15.1517,18.48415 -0.0682,5.2989 1.62387,9.57151 5.31218,13.41204 2.53654,2.64162 6.60167,4.89928 10.13492,5.62932 l 2.17672,0.44957 2.70077,8.4091 c 1.4852,4.62507 7.3252,23.10611 12.97739,41.06837 5.6522,17.96311 11.40945,36.25041 12.79441,40.6391 l 2.51793,7.97814 -1.67058,1.85817 c -3.16754,3.52336 -4.65952,7.66946 -4.6197,12.83844 0.0974,12.67692 11.38205,21.711 23.88641,19.12269 5.437,-1.12541 10.90083,-5.29974 13.44564,-10.27189 l 1.26007,-2.4621 H 563.6811 l 1.25676,2.4621 c 1.64979,3.23136 5.33985,6.91091 8.45315,8.42859 7.01512,3.41973 14.72187,2.86507 20.83807,-1.49943 5.25004,-3.74621 7.95555,-9.26086 7.94594,-16.19719 -0.007,-5.12041 -1.4706,-9.33344 -4.398,-12.6594 l -1.47498,-1.6757 8.80533,-28.5688 c 4.8428,-15.71229 11.10077,-35.95671 13.90653,-44.98825 2.80548,-9.03154 5.6618,-18.23479 6.34693,-20.45144 l 1.24584,-4.02974 2.29165,-0.46674 c 5.10912,-1.04038 10.00926,-4.34153 12.76306,-8.59804 1.96397,-3.03621 2.84812,-6.14782 2.84812,-10.02309 0,-5.80187 -1.57498,-9.71695 -5.47992,-13.62186 -2.72079,-2.72082 -6.27633,-4.68889 -9.78812,-5.41779 -2.84671,-0.59081 -7.49607,-0.25471 -9.64946,0.69809 l -1.74576,0.77218 -17.4124,-13.00368 c -27.8529,-20.80021 -40.20137,-30.00345 -55.09578,-41.05707 l -13.96301,-10.3648 -0.14087,-3.44967 c -0.22332,-5.47993 -1.94536,-9.46533 -5.66941,-13.11974 -4.70274,-4.61545 -11.534,-6.46751 -18.04473,-4.89194 m -20.5339,41.48351 c -13.71421,10.21853 -23.96125,17.84365 -40.44423,30.09666 -6.82393,5.07269 -16.61177,12.35102 -21.75054,16.17431 l -9.34304,6.95129 0.89296,2.44092 c 2.3661,6.46555 0.94332,13.64445 -3.65103,18.42174 -1.05059,1.09257 -2.21356,2.14644 -2.58398,2.34204 -0.62876,0.33243 -0.41893,1.15205 3.17008,12.36401 2.11397,6.60448 6.56014,20.54746 9.88047,30.98343 3.32032,10.43654 8.27665,25.9548 11.0135,34.48534 2.73725,8.52997 5.22632,16.37087 5.5319,17.42483 l 0.55539,1.91579 h 1.87931 c 4.72673,0 9.88216,2.40189 13.61197,6.34129 2.29568,2.42487 4.47708,5.99165 4.47708,7.32012 0,0.51452 5.07354,0.57036 51.81697,0.57036 47.60622,0 51.81699,-0.0481 51.81699,-0.59335 0,-0.9776 2.16505,-4.93232 3.71117,-6.77902 1.78115,-2.12746 5.74568,-4.80779 8.57855,-5.80046 1.16845,-0.40945 3.49654,-0.85611 5.17378,-0.99293 l 3.04893,-0.24851 3.61628,-11.67746 c 1.98918,-6.42262 4.50815,-14.55101 5.59827,-18.06336 1.08962,-3.51236 3.37764,-10.90196 5.08426,-16.42113 1.70669,-5.51946 5.42825,-17.50673 8.27016,-26.6388 2.84163,-9.13209 5.64739,-18.20034 6.23509,-20.15181 l 1.06848,-3.54794 -2.334,-2.29059 c -3.61657,-3.54963 -5.35905,-7.67314 -5.35114,-12.6659 0.004,-2.90546 0.57219,-5.62932 1.57863,-7.57457 l 0.6021,-1.16371 -10.12419,-7.49353 c -14.96954,-11.08043 -46.00212,-34.16904 -67.23385,-50.02366 -2.70949,-2.02345 -5.12409,-3.80098 -5.36611,-3.95009 -0.25509,-0.15764 -1.17357,0.25033 -2.18949,0.97215 -0.9623,0.68386 -2.30044,1.52279 -2.97295,1.86437 -6.34891,3.22374 -16.09524,2.29898 -20.98012,-1.98988 -0.6864,-0.60247 -1.30822,-1.09109 -1.38193,-1.08598 -0.0737,0.006 -5.25258,3.82329 -11.50829,8.48422 m 7.61552,24.05671 c -0.33462,0.33463 -0.4379,8.9053 -0.4379,36.35209 v 35.91434 l -0.82106,-0.23938 c -3.62447,-1.05715 -6.18172,-1.36662 -9.76157,-1.18087 -13.74359,0.71232 -26.31658,8.98239 -30.89871,20.32378 -3.38867,8.38933 -2.22563,15.52109 3.38782,20.77169 3.87328,3.62335 8.3786,5.2379 14.55495,5.21644 8.36194,-0.0296 16.68208,-3.75439 22.88273,-10.24479 3.15623,-3.30309 5.29268,-6.74258 6.75105,-10.86693 l 1.01923,-2.88258 0.10255,-32.16391 0.10256,-32.16109 3.94303,0.83492 c 4.97017,1.05277 8.57149,2.06251 13.90343,3.89813 9.90561,3.41012 13.97969,6.98518 15.553,13.64757 0.67508,2.85801 0.56307,10.15752 -0.24705,16.09071 -0.51783,3.7911 -0.28317,4.49204 1.50455,4.49204 1.35823,0 2.39969,-1.29327 4.45393,-5.52934 5.37006,-11.07479 6.23339,-21.25773 2.45915,-29.00372 -1.59065,-3.26412 -5.00688,-6.30259 -10.59271,-9.41986 -14.23583,-7.94538 -19.96964,-11.75794 -31.42117,-20.89284 -4.21782,-3.3641 -5.45959,-3.93372 -6.43815,-2.95517 m 83.31157,58.52427 c -7.02472,2.91279 -16.95941,7.01708 -22.07756,9.11993 -5.11787,2.10338 -9.55175,3.97834 -9.8528,4.16614 -0.47547,0.29741 -0.5605,3.42171 -0.64627,23.84687 l -0.0993,23.50489 -1.3604,-0.4857 c -1.80598,-0.6448 -6.7152,-0.63788 -9.15864,0.0124 -4.65329,1.23851 -9.5074,4.88883 -11.98528,9.01317 -5.32912,8.87085 -0.14925,17.89646 10.29534,17.93967 3.58014,0.0146 6.49066,-0.7853 9.67035,-2.65806 2.5577,-1.50639 6.43052,-5.27771 7.45596,-7.26082 1.92421,-3.72134 1.83624,-2.48034 2.03184,-28.62812 l 0.18246,-24.38346 2.91929,-1.24436 c 1.60562,-0.68422 9.07729,-3.80607 16.60357,-6.93717 7.52628,-3.13111 13.88988,-5.77928 14.14038,-5.88547 0.36052,-0.15217 0.45614,2.77411 0.45614,13.93845 v 14.13077 l -0.82105,-0.25106 c -1.76253,-0.53972 -6.084,-0.6437 -7.99028,-0.19231 -6.72988,1.59286 -12.10249,7.03827 -12.62438,12.79497 -0.87984,9.70227 10.60852,14.6874 20.02413,8.68981 2.55223,-1.62606 5.32376,-4.77418 6.62935,-7.52995 l 1.16809,-2.46647 0.10031,-26.695 c 0.0905,-24.04372 0.0423,-26.75262 -0.48204,-27.27763 -0.32039,-0.32039 -0.85828,-0.57694 -1.19511,-0.56999 -0.33718,0.007 -6.3602,2.39531 -13.38465,5.30794"
     fill="#00a4f2"
     fill-rule="evenodd"
     stroke-width="0.364905"
     id="path1"
     style="fill:#024a70;fill-opacity:1" />
  <path
     d="m 342.13113,-3.8729071 c -5.08885,1.2311936 -8.47086,5.4023644 -8.4825,10.461782 -0.003,1.4970803 -0.0719,1.9370508 -0.31564,2.0307141 -0.1712,0.065641 -3.48715,2.446316 -7.36837,5.290264 -7.34283,5.380206 -9.18735,6.747986 -28.16933,20.891208 -6.32317,4.711116 -12.04407,8.969114 -12.71283,9.462191 l -1.21594,0.896539 -0.87437,-0.353683 c -1.29873,-0.525303 -3.94627,-0.638174 -5.51821,-0.234957 -5.25757,1.348465 -8.61321,5.442004 -8.67922,10.588127 -0.039,3.035321 0.9302,5.482766 3.04294,7.682701 1.45298,1.513178 3.78157,2.806418 5.8055,3.224598 l 1.24687,0.257524 1.54706,4.816912 c 0.85075,2.649342 4.19604,13.235689 7.43373,23.524852 3.2377,10.289655 6.53558,20.765025 7.32891,23.278965 l 1.44233,4.57005 -0.95694,1.0644 c -1.81443,2.01826 -2.66908,4.39323 -2.64627,7.35414 0.0558,7.2616 6.51988,12.43653 13.68266,10.95388 3.11442,-0.64465 6.24422,-3.03581 7.70195,-5.88396 l 0.7218,-1.41034 h 59.15669 l 0.71991,1.41034 c 0.94503,1.851 3.05878,3.95872 4.84215,4.82808 4.01841,1.95889 8.433,1.64118 11.9365,-0.85891 3.00733,-2.1459 4.5571,-5.30482 4.5516,-9.27809 -0.004,-2.93309 -0.84239,-5.3464 -2.51927,-7.25158 l -0.8449,-0.95988 5.04389,-16.36483 c 2.77406,-9.000341 6.35876,-20.596785 7.96596,-25.770245 1.60703,-5.173461 3.2432,-10.44528 3.63565,-11.715029 l 0.71364,-2.308319 1.31272,-0.267362 c 2.92661,-0.59595 5.73352,-2.486917 7.31095,-4.925139 1.12501,-1.739207 1.63147,-3.521607 1.63147,-5.741444 0,-3.323436 -0.90218,-5.566078 -3.13902,-7.802897 -1.55853,-1.558544 -3.59521,-2.685897 -5.60685,-3.103428 -1.63066,-0.338426 -4.29391,-0.145904 -5.52742,0.399882 l -1.00001,0.442318 -9.97419,-7.448784 C 379.39998,25.962872 372.32651,20.691052 363.79467,14.359302 l -7.99832,-5.9371847 -0.0807,-1.9760429 c -0.12792,-3.1390209 -1.11434,-5.4219438 -3.24756,-7.5152698 -2.69383,-2.6438331 -6.60692,-3.7047331 -10.33642,-2.802211 M 330.36942,19.891248 c -7.8558,5.853392 -13.72552,10.221227 -23.16733,17.24002 -3.90889,2.905744 -9.51558,7.074927 -12.45918,9.264994 l -5.3519,3.98185 0.51151,1.39821 c 1.35536,3.703605 0.54035,7.815839 -2.09138,10.552373 -0.60181,0.625847 -1.26798,1.229526 -1.48016,1.341569 -0.36017,0.190423 -0.23998,0.65992 1.81588,7.082372 1.21093,3.783191 3.75779,11.770026 5.65975,17.747982 1.90196,5.978275 4.74105,14.867472 6.30877,19.753952 1.56796,4.88615 2.99375,9.37759 3.16879,9.98131 l 0.31815,1.09742 h 1.0765 c 2.70758,0 5.66072,1.37585 7.79724,3.63242 1.31501,1.38902 2.56456,3.43215 2.56456,4.19312 0,0.29474 2.90624,0.32672 29.68189,0.32672 27.26987,0 29.68189,-0.0275 29.68189,-0.33989 0,-0.55999 1.24019,-2.82534 2.12584,-3.88316 1.02028,-1.21866 3.29125,-2.75401 4.91398,-3.32263 0.66931,-0.23454 2.00289,-0.4904 2.96366,-0.56877 l 1.74649,-0.14235 2.07148,-6.68911 c 1.13944,-3.67901 2.58236,-8.33513 3.20681,-10.34708 0.62416,-2.01196 1.93479,-6.244882 2.91238,-9.406387 0.97763,-3.161665 3.10941,-10.028225 4.73732,-15.25928 1.62775,-5.231057 3.23495,-10.425547 3.57159,-11.543389 l 0.61205,-2.032337 -1.33696,-1.312102 c -2.07165,-2.033305 -3.06978,-4.395339 -3.06525,-7.2553 0.002,-1.664309 0.32777,-3.224597 0.90427,-4.33888 l 0.3449,-0.666597 -5.79936,-4.292455 c -8.57487,-6.347111 -26.35101,-19.572766 -38.51301,-28.654635 -1.55205,-1.159078 -2.93518,-2.177285 -3.07382,-2.262701 -0.14612,-0.0903 -0.67225,0.143396 -1.25418,0.556867 -0.55123,0.391732 -1.31775,0.872291 -1.70298,1.067955 -3.63679,1.846627 -9.2197,1.316904 -12.01786,-1.139845 -0.39319,-0.345107 -0.74938,-0.625 -0.7916,-0.622076 -0.0422,0.0032 -3.00879,2.190066 -6.5922,4.85995 m 4.36234,13.780202 c -0.19168,0.191682 -0.25084,5.101147 -0.25084,20.823263 v 20.572515 l -0.47032,-0.137124 c -2.07618,-0.605558 -3.54102,-0.782829 -5.59164,-0.676429 -7.87263,0.408034 -15.07471,5.145304 -17.69945,11.641903 -1.94111,4.805589 -1.27489,8.890814 1.94061,11.898475 2.2187,2.075529 4.79944,3.000387 8.33739,2.988087 4.7899,-0.0169 9.55586,-2.150591 13.10773,-5.868432 1.80795,-1.892084 3.03175,-3.8623 3.86715,-6.224815 l 0.58383,-1.65121 0.0587,-18.424183 0.0587,-18.422568 2.25865,0.478264 c 2.84702,0.603049 4.90994,1.181447 7.96419,2.232932 5.67415,1.953392 8.00787,4.001262 8.90909,7.817622 0.38671,1.63713 0.32254,5.818445 -0.14151,9.217107 -0.29662,2.171623 -0.1622,2.573141 0.86183,2.573141 0.77804,0 1.37459,-0.740816 2.55131,-3.167328 3.07609,-6.343878 3.57062,-12.176888 1.40866,-16.613959 -0.91116,-1.869759 -2.86805,-3.610261 -6.06774,-5.3959 -8.15459,-4.551287 -11.43904,-6.735205 -17.99872,-11.967872 -2.41606,-1.927028 -3.12738,-2.25332 -3.68792,-1.692783 m 47.72268,33.523965 c -4.02391,1.668509 -9.71472,4.01954 -12.64651,5.224094 -2.93163,1.204861 -5.47144,2.278882 -5.64389,2.386456 -0.27236,0.170363 -0.32106,1.960029 -0.3702,13.660007 l -0.0569,13.464112 -0.77927,-0.27822 c -1.03451,-0.36936 -3.84661,-0.3654 -5.24627,0.007 -2.6655,0.70945 -5.44604,2.80043 -6.86543,5.16294 -3.05264,5.08141 -0.0855,10.25148 5.89739,10.27624 2.05078,0.008 3.718,-0.44984 5.53939,-1.5226 1.4651,-0.86289 3.68354,-3.02319 4.27094,-4.15915 1.10222,-2.13167 1.05183,-1.42079 1.16388,-16.398813 l 0.10451,-13.967379 1.67224,-0.71279 c 0.91974,-0.391941 5.19967,-2.180202 9.51088,-3.973766 4.31122,-1.793565 7.95643,-3.310494 8.09992,-3.371323 0.20652,-0.08717 0.26129,1.589071 0.26129,7.984249 v 8.09441 l -0.47032,-0.143813 c -1.00962,-0.309165 -3.48504,-0.368733 -4.57701,-0.110158 -3.85502,0.91242 -6.93256,4.031675 -7.23151,7.329227 -0.50399,5.557676 6.07678,8.413266 11.47026,4.977716 1.46196,-0.93144 3.04956,-2.734751 3.79743,-4.313313 l 0.6691,-1.41285 0.0575,-15.291477 c 0.0518,-13.772765 0.0243,-15.324479 -0.27612,-15.625215 -0.18353,-0.18353 -0.49164,-0.330486 -0.68458,-0.326504 -0.19315,0.0038 -3.64327,1.372083 -7.66702,3.040503"
     fill="#00a4f2"
     fill-rule="evenodd"
     stroke-width="0.209025"
     id="path4"
     style="fill:#024a70;fill-opacity:0.13333334" />
  <use
     x="0"
     y="0"
     xlink:href="#path4"
     id="use5"
     transform="translate(407.64145,606.11546)" />
  <use
     x="0"
     y="0"
     xlink:href="#use5"
     id="use6"
     transform="translate(-577.10484,131.83861)" />
  <use
     x="0"
     y="0"
     xlink:href="#use6"
     id="use7"
     transform="translate(-10.520713,-561.13139)" />
  <use
     x="0"
     y="0"
     xlink:href="#path4"
     id="use8"
     transform="translate(347.71757,125.34006)" />
  <use
     x="0"
     y="0"
     xlink:href="#use8"
     id="use9"
     transform="translate(113.21037,321.43659)" />
  <use
     x="0"
     y="0"
     xlink:href="#use9"
     id="use10"
     transform="translate(-417.20739,76.099867)" />
  <use
     x="0"
     y="0"
     xlink:href="#use10"
     id="use11"
     transform="translate(-9.3531193,249.37996)" />
  <use
     x="0"
     y="0"
     xlink:href="#use11"
     id="use12"
     transform="translate(238.55043,-177.90201)" />
  <use
     x="0"
     y="0"
     xlink:href="#use9"
     id="use13"
     transform="translate(40.432276,382.08501)" />
  <use
     x="0"
     y="0"
     xlink:href="#use2"
     id="use14"
     transform="translate(-22.237752,244.61527)" />
  <use
     x="0"
     y="0"
     xlink:href="#use9"
     id="use15"
     transform="translate(173.85879,-481.14408)" />
  <use
     x="0"
     y="0"
     xlink:href="#use15"
     id="use16"
     transform="translate(-948.13687,515.51152)" />
  <use
     x="0"
     y="0"
     xlink:href="#use16"
     id="use17"
     transform="translate(857.16425,-281.00432)" />
  <path
     style="font-weight:500;font-size:64px;font-family:Fredoka;-inkscape-font-specification:'Fredoka Medium';fill:#024a70;stroke-width:18"
     d="m 374.07993,684.5162 q -4.608,0 -8.64,-1.728 -3.968,-1.792 -7.04,-4.864 -3.072,-3.136 -4.8,-7.168 -1.728,-4.096 -1.728,-8.768 0,-4.8 1.664,-8.96 1.728,-4.224 4.672,-7.36 3.008,-3.2 6.912,-4.992 3.904,-1.792 8.384,-1.792 4.672,0 8.64,1.792 4.032,1.728 7.04,4.864 3.008,3.136 4.736,7.296 1.728,4.096 1.728,8.896 0,4.672 -1.664,8.832 -1.664,4.096 -4.672,7.296 -3.008,3.136 -6.912,4.928 -3.84,1.728 -8.32,1.728 z m -0.32,-7.808 q 2.944,0 5.504,-1.152 2.56,-1.152 4.48,-3.2 1.984,-2.048 3.072,-4.736 1.088,-2.752 1.088,-5.888 0,-3.136 -1.152,-5.824 -1.088,-2.752 -3.072,-4.8 -1.92,-2.112 -4.48,-3.264 -2.496,-1.152 -5.44,-1.152 -2.88,0 -5.44,1.152 -2.56,1.152 -4.544,3.264 -1.92,2.048 -3.008,4.8 -1.088,2.752 -1.088,5.824 0,3.072 1.088,5.824 1.152,2.752 3.072,4.8 1.92,2.048 4.416,3.2 2.56,1.152 5.504,1.152 z m 31.10404,7.232 q -1.792,0 -2.624,-0.512 -0.768,-0.512 -1.024,-1.408 -0.192,-0.96 -0.192,-1.984 v -36.928 q 0,-1.024 0.256,-1.856 0.256,-0.896 1.024,-1.408 0.832,-0.576 2.624,-0.576 h 13.696 q 2.944,0 5.568,0.96 2.688,0.896 4.8,2.816 2.112,1.856 3.328,4.736 1.28,2.816 1.28,6.592 0,2.496 -0.768,4.992 -0.768,2.432 -2.304,4.544 -1.472,2.048 -3.776,3.52 -2.304,1.472 -5.44,1.92 h -12.544 v 10.752 q 0,1.024 -0.256,1.92 -0.192,0.896 -1.024,1.408 -0.768,0.512 -2.624,0.512 z m 27.264,-0.96 q -1.856,1.28 -3.072,0.96 -1.152,-0.32 -2.304,-2.048 l -10.752,-16.256 8.64,-1.152 8.512,12.928 q 0.896,1.28 1.088,2.176 0.192,0.896 -0.32,1.664 -0.512,0.768 -1.792,1.728 z m -23.36,-21.312 h 10.816 q 1.152,0 2.24,-0.384 1.152,-0.448 2.048,-1.344 0.896,-0.96 1.408,-2.304 0.576,-1.408 0.576,-3.328 0,-2.304 -0.896,-3.904 -0.896,-1.664 -2.56,-2.496 -1.6,-0.896 -3.904,-0.896 h -9.728 z m 35.52,22.336 q -1.792,0 -2.624,-0.576 -0.832,-0.512 -1.024,-1.408 -0.192,-0.896 -0.192,-1.92 v -36.992 q 0,-1.088 0.192,-1.92 0.256,-0.896 1.024,-1.408 0.832,-0.512 2.688,-0.512 1.792,0 2.56,0.512 0.832,0.512 1.024,1.408 0.256,0.896 0.256,1.984 v 13.248 l 16.32,-15.872 q 1.024,-1.088 1.856,-1.472 0.832,-0.384 1.728,-0.064 0.896,0.256 1.92,1.28 1.664,1.6 1.664,2.816 0,1.152 -1.472,2.688 l -16.896,15.808 17.088,15.872 q 1.6,1.536 1.536,2.752 -0.064,1.216 -1.728,2.752 -1.216,1.024 -2.112,1.28 -0.832,0.32 -1.664,-0.128 -0.768,-0.384 -1.728,-1.472 l -16.512,-16 v 13.504 q 0,1.024 -0.256,1.92 -0.192,0.896 -1.024,1.408 -0.768,0.512 -2.624,0.512 z m 38.20803,0 q -1.792,0 -2.624,-0.576 -0.832,-0.512 -1.024,-1.408 -0.192,-0.896 -0.192,-1.984 v -36.928 q 0,-2.176 0.832,-3.008 0.896,-0.832 3.2,-0.832 h 24.96 q 1.088,0 1.92,0.256 0.896,0.192 1.408,1.024 0.512,0.768 0.512,2.624 0,1.792 -0.576,2.624 -0.512,0.832 -1.408,1.024 -0.832,0.192 -1.92,0.192 H 486.4 v 10.752 h 14.592 q 1.088,0 1.856,0.256 0.768,0.192 1.216,0.896 0.448,0.704 0.448,2.368 0,1.6 -0.448,2.368 -0.448,0.704 -1.28,0.896 -0.832,0.128 -1.92,0.128 H 486.4 v 11.52 h 21.248 q 1.088,0 1.92,0.256 0.896,0.192 1.408,1.024 0.512,0.832 0.512,2.624 0,1.792 -0.576,2.624 -0.512,0.832 -1.408,1.024 -0.832,0.256 -1.92,0.256 z m 48.89603,0.576 q -2.88,0 -5.248,-0.704 -2.304,-0.704 -4.096,-1.792 -1.728,-1.088 -2.944,-2.24 -1.216,-1.152 -1.792,-2.112 -0.832,-1.152 -1.088,-2.048 -0.256,-0.896 0.128,-1.728 0.448,-0.896 1.6,-1.856 1.152,-1.024 2.112,-1.024 1.024,-0.064 1.92,0.576 0.96,0.64 1.856,1.792 1.536,2.048 3.456,2.944 1.92,0.832 3.84,0.832 2.496,0 4.352,-0.64 1.856,-0.704 2.88,-2.048 1.088,-1.344 1.088,-3.456 0,-1.728 -1.088,-2.816 -1.024,-1.152 -2.752,-1.92 -1.728,-0.832 -3.904,-1.472 -2.112,-0.704 -4.288,-1.536 -1.536,-0.512 -3.072,-1.216 -1.536,-0.768 -2.88,-1.728 -1.28,-0.96 -2.304,-2.24 -0.96,-1.344 -1.536,-3.072 -0.576,-1.728 -0.576,-4.032 0,-3.648 1.792,-6.4 1.792,-2.816 4.992,-4.416 3.2,-1.664 7.296,-1.664 2.624,0 4.672,0.512 2.112,0.448 3.584,1.216 1.536,0.704 2.496,1.472 1.024,0.704 1.472,1.216 1.472,1.472 1.6,2.496 0.192,0.96 -1.152,2.624 -1.344,1.728 -2.624,1.92 -1.216,0.128 -2.752,-1.024 -1.024,-1.088 -2.048,-1.728 -1.024,-0.704 -2.304,-1.024 -1.216,-0.32 -3.008,-0.32 -1.28,0 -2.496,0.384 -1.152,0.32 -1.984,1.024 -0.832,0.64 -1.344,1.6 -0.448,0.96 -0.448,2.176 0,1.664 0.896,2.752 0.96,1.024 2.56,1.728 1.6,0.64 3.584,1.216 1.984,0.576 4.032,1.216 2.112,0.704 4.16,1.664 2.048,0.96 3.648,2.432 1.6,1.408 2.56,3.584 0.96,2.112 0.96,5.184 0,3.52 -1.344,6.144 -1.344,2.624 -3.648,4.288 -2.304,1.664 -5.12,2.432 -2.816,0.832 -5.696,0.832 z m 51.392,-45.376 q 0.96,0 1.664,0.192 0.768,0.192 1.216,0.96 0.448,0.704 0.448,2.304 0,1.6 -0.448,2.368 -0.448,0.704 -1.216,0.896 -0.768,0.128 -1.728,0.128 h -11.776 v 34.112 q 0,1.088 -0.256,1.984 -0.192,0.832 -1.024,1.344 -0.768,0.512 -2.624,0.512 -1.728,0 -2.56,-0.576 -0.832,-0.512 -1.024,-1.344 -0.192,-0.896 -0.192,-1.984 v -34.048 h -11.904 q -0.896,0 -1.664,-0.192 -0.768,-0.192 -1.28,-0.896 -0.448,-0.704 -0.448,-2.304 0,-1.6 0.448,-2.304 0.448,-0.768 1.216,-0.96 0.832,-0.192 1.728,-0.192 z m 13.05601,44.736 q -1.792,0 -2.624,-0.512 -0.768,-0.512 -1.024,-1.408 -0.192,-0.96 -0.192,-1.984 v -36.928 q 0,-1.024 0.256,-1.856 0.256,-0.896 1.024,-1.408 0.832,-0.576 2.624,-0.576 h 13.696 q 2.944,0 5.568,0.96 2.688,0.896 4.8,2.816 2.112,1.856 3.328,4.736 1.28,2.816 1.28,6.592 0,2.496 -0.768,4.992 -0.768,2.432 -2.304,4.544 -1.472,2.048 -3.776,3.52 -2.304,1.472 -5.44,1.92 h -12.544 v 10.752 q 0,1.024 -0.256,1.92 -0.192,0.896 -1.024,1.408 -0.768,0.512 -2.624,0.512 z m 27.264,-0.96 q -1.856,1.28 -3.072,0.96 -1.152,-0.32 -2.304,-2.048 l -10.752,-16.256 8.64,-1.152 8.512,12.928 q 0.896,1.28 1.088,2.176 0.192,0.896 -0.32,1.664 -0.512,0.768 -1.792,1.728 z m -23.36,-21.312 h 10.816 q 1.152,0 2.24,-0.384 1.152,-0.448 2.048,-1.344 0.896,-0.96 1.408,-2.304 0.576,-1.408 0.576,-3.328 0,-2.304 -0.896,-3.904 -0.896,-1.664 -2.56,-2.496 -1.6,-0.896 -3.904,-0.896 h -9.728 z m 50.81599,22.848 q -4.608,0 -8.64,-1.728 -3.968,-1.792 -7.04,-4.864 -3.072,-3.136 -4.8,-7.168 -1.728,-4.096 -1.728,-8.768 0,-4.8 1.664,-8.96 1.728,-4.224 4.672,-7.36 3.008,-3.2 6.912,-4.992 3.904,-1.792 8.384,-1.792 4.672,0 8.64,1.792 4.032,1.728 7.04,4.864 3.008,3.136 4.736,7.296 1.728,4.096 1.728,8.896 0,4.672 -1.664,8.832 -1.664,4.096 -4.672,7.296 -3.008,3.136 -6.912,4.928 -3.84,1.728 -8.32,1.728 z m -0.32,-7.808 q 2.944,0 5.504,-1.152 2.56,-1.152 4.48,-3.2 1.984,-2.048 3.072,-4.736 1.088,-2.752 1.088,-5.888 0,-3.136 -1.152,-5.824 -1.088,-2.752 -3.072,-4.8 -1.92,-2.112 -4.48,-3.264 -2.496,-1.152 -5.44,-1.152 -2.88,0 -5.44,1.152 -2.56,1.152 -4.544,3.264 -1.92,2.048 -3.008,4.8 -1.088,2.752 -1.088,5.824 0,3.072 1.088,5.824 1.152,2.752 3.072,4.8 1.92,2.048 4.416,3.2 2.56,1.152 5.504,1.152 z"
     id="text18"
     aria-label="ORKESTRO" />
</svg>
